<svg width="41" height="62" viewBox="0 0 41 62" fill="none" xmlns="http://www.w3.org/2000/svg">
<path d="M4.71282 59.0046C7.06896 59.0046 8.29291 56.9675 8.29291 54.773C8.29291 52.5791 7.03292 50.601 4.71282 50.601H2.72207V59.0046H4.71282ZM4.74942 47.9559C8.82269 47.9559 11.0144 51.2667 11.0144 54.7534C11.0696 58.2602 8.8773 61.6491 4.74942 61.6491H0V47.9559H4.74942Z" fill="white"/>
<path d="M13.8576 57.6338C13.9308 58.7895 14.6615 59.3181 15.7571 59.3181C16.9445 59.3181 17.6933 58.4956 17.7118 57.2417C17.6572 55.0478 15.7571 54.7343 14.1132 55.0478V54.6365L16.4693 50.2875H11.9575V47.9559H20.086V48.3677L17.3099 53.1477C19.3558 53.5196 20.287 55.3225 20.287 57.222C20.287 59.6513 18.6796 61.8457 15.7937 61.8457C13.401 61.8457 11.5561 60.2783 11.4648 57.6338H13.8576Z" fill="white"/>
<path d="M27.8562 57.2419C27.8562 55.8317 27.0528 55.0474 25.7376 55.0474C24.4219 55.0474 23.6005 55.8317 23.6005 57.2419C23.6005 58.6329 24.4219 59.3774 25.7376 59.3774C27.0528 59.3774 27.8562 58.6329 27.8562 57.2419ZM28.4591 47.8387L25.5366 52.9912C25.7376 52.8732 25.9566 52.8142 26.1948 52.8142C28.7694 52.717 30.5783 54.421 30.5783 57.2419C30.5783 60.3763 28.4591 61.8651 25.7376 61.8651C23.0161 61.8651 20.9336 60.3763 20.9336 57.2419C20.9336 56.243 21.2624 55.1457 21.7556 54.3036L25.464 47.8387H28.4591Z" fill="white"/>
<path d="M38.1882 57.4374C38.2248 57.1048 38.2428 56.752 38.2428 56.3407V53.3238C38.2428 52.9322 38.2248 52.5597 38.1882 52.2074C38.0599 50.9731 37.1653 50.4051 36.0511 50.4051C34.8823 50.4051 34.0237 50.9731 33.8954 52.2074C33.8593 52.5597 33.8408 52.9322 33.8408 53.3238V56.3407C33.8408 56.752 33.8593 57.1048 33.8954 57.4374C34.0237 58.6324 34.8823 59.279 36.0511 59.279C37.1653 59.279 38.0599 58.6324 38.1882 57.4374ZM40.8005 52.5204V57.1245C40.8005 60.1021 38.6634 61.8449 36.0511 61.8449C33.4022 61.8449 31.2656 60.1021 31.2656 57.1245V52.5204C31.2656 49.5624 33.4022 47.8387 36.0511 47.8387C38.6634 47.8387 40.8005 49.5624 40.8005 52.5204Z" fill="white"/>
<path d="M40.0533 0H26.7537C26.5544 0 26.3632 0.0797384 26.2228 0.222285L20.504 6.01589C20.3664 6.15571 20.2888 6.34413 20.2888 6.5402V18.4589L14.4858 12.6588C14.2914 12.4649 13.9763 12.4649 13.7818 12.6588L0.145825 26.287C-0.0486083 26.4814 -0.0486083 26.7965 0.145825 26.9904L13.7818 40.6192C13.9763 40.813 14.2914 40.813 14.4858 40.6192L20.2888 34.819V40.2494C20.2888 40.6618 20.623 40.9955 21.0354 40.9955H34.3437C34.5376 40.9955 34.7238 40.9195 34.8631 40.7846L40.5727 35.2428C40.7174 35.1019 40.7993 34.9086 40.7993 34.707V0.746047C40.7993 0.334246 40.4651 0 40.0533 0Z" fill="white"/>
</svg>
