<svg xmlns="http://www.w3.org/2000/svg" width="119.501" height="41.731" viewBox="0 0 119.501 41.731">
    <defs>
        <style>
            .cls-1{fill:#fff}
        </style>
    </defs>
    <g id="Group_1170" transform="translate(-103.59 -77.49)">
        <path id="Path_1501" d="M148.519 116.51a1.218 1.218 0 0 1-.5 2.329 1.234 1.234 0 0 1-.322-.045l-40.48-10.258a4.875 4.875 0 0 1-3.626-4.712V82.363a4.873 4.873 0 0 1 4.873-4.873h35.9a4.874 4.874 0 0 1 4.873 4.873V105.8a1.22 1.22 0 0 1-1.715 1.113l.014.005-8.105-3.674a2.424 2.424 0 0 1-1.4-2.2v-9.909a2.443 2.443 0 0 0-2.437-2.437h-18.359a2.436 2.436 0 0 0-2.437 2.437v6.938a4.875 4.875 0 0 0 2.879 4.448c.609.273 30.841 13.989 30.841 13.989" class="cls-1" transform="translate(0 0)"/>
        <path id="Path_1502" d="M365.2 95.288v15.142h-3.182v-9.383l-3 6.549h-2.183l-2.88-6.549v9.383h-3.182V94.173h3.089L358 103.3l4.111-9.127h2.23z" class="cls-1" transform="translate(-191.419 -12.919)"/>
        <path id="Path_1503" d="M436.409 120.419q0 5.969-5.574 5.969-5.527 0-5.527-5.969t5.551-5.969q5.55 0 5.55 5.969m-3 0a4.753 4.753 0 0 0-.58-2.717 2.292 2.292 0 0 0-1.974-.79 2.229 2.229 0 0 0-1.929.767 4.588 4.588 0 0 0-.626 2.741 4.749 4.749 0 0 0 .581 2.705 2.244 2.244 0 0 0 1.951.8 2.3 2.3 0 0 0 1.951-.767 4.579 4.579 0 0 0 .627-2.74" class="cls-1" transform="translate(-249.13 -28.621)"/>
        <path id="Path_1504" d="M495.4 104.855q0 5.854-6.131 5.854a24.846 24.846 0 0 1-4.668-.418V94.172h2.113l.86 1.115v3.832a9.769 9.769 0 0 1 2.74-.372 4.549 4.549 0 0 1 4.018 1.881 7.364 7.364 0 0 1 1.068 4.226m-3 .024q0-3.74-2.694-3.74a5.442 5.442 0 0 0-2.136.441v6.642a10.137 10.137 0 0 0 2 .187q2.832 0 2.833-3.531" class="cls-1" transform="translate(-295.046 -12.918)"/>
        <path id="Path_1505" d="M544.97 95.355a1.824 1.824 0 0 1-.4 1.323 2.261 2.261 0 0 1-2.554 0 2.4 2.4 0 0 1-.011-2.624 2.3 2.3 0 0 1 2.577 0 1.826 1.826 0 0 1 .383 1.3m-.185 4.366v10.312h-2.973V98.606h2.113z" class="cls-1" transform="translate(-339.205 -12.521)"/>
        <path id="Path_1506" d="M570.641 95.288v15.142h-2.973V94.173h2.114z" class="cls-1" transform="translate(-359.371 -12.919)"/>
        <path id="Path_1507" d="M596.812 116.7l-5.782 15.352h-2.881l2.021-5.04-3.97-11.428h3.135l2.322 7.618 2.532-7.618h1.765z" class="cls-1" transform="translate(-373.72 -29.499)"/>
        <path id="Path_1508" d="M359.674 193.5a3.756 3.756 0 0 1-1.333 3.15 4.479 4.479 0 0 1-2.844.846h-2.25v4.392h-2.466v-12.6h4.644q4.249 0 4.249 4.212m-2.521-.18a1.953 1.953 0 0 0-.567-1.575 2.893 2.893 0 0 0-1.863-.477h-1.476v4.248h1.653a2.359 2.359 0 0 0 1.746-.54 2.319 2.319 0 0 0 .5-1.656" class="cls-1" transform="translate(-191.419 -86.57)"/>
        <path id="Path_1509" d="M405.746 206.063v7.993h-1.53l-.665-.846a3.178 3.178 0 0 1-2.449 1.062q-3.727 0-3.727-4.626 0-4.644 4.554-4.644 1.224 0 3.151.2zm-2.3 5.545v-4.663a10.17 10.17 0 0 0-1.674-.144q-2.07 0-2.07 2.826 0 2.754 1.818 2.754a2.777 2.777 0 0 0 1.926-.774" class="cls-1" transform="translate(-227.5 -98.742)"/>
        <path id="Path_1510" d="M448.446 206.742l-4.483 11.9h-2.232l1.566-3.906-3.078-8.857h2.431l1.8 5.9 1.962-5.9h1.368z" class="cls-1" transform="translate(-260.678 -99.421)"/>
    </g>
</svg>
